<svg width="151" height="65" viewBox="0 0 151 51" fill="none" xmlns="http://www.w3.org/2000/svg">
<rect x="0.5" y="0.190712" width="50" height="50" rx="5" fill="url(#paint0_linear_225_169)"/>
<path d="M37.3924 8.6457H40.5054L45.0791 13.5786V16.069" stroke="white" stroke-width="2"/>
<path d="M32.3663 36.127V41.1001" stroke="white" stroke-width="2"/>
<path d="M13.5124 32.126L15.9367 34.4357H19.5765" stroke="white" stroke-width="2"/>
<path d="M23.6776 34.4411H30.5154" stroke="white" stroke-width="2"/>
<path d="M12.6862 9.56586C12.6862 10.9466 11.5669 12.0659 10.1862 12.0659C8.80545 12.0659 7.68616 10.9466 7.68616 9.56586C7.68616 8.18515 8.80545 7.06586 10.1862 7.06586C11.5669 7.06586 12.6862 8.18515 12.6862 9.56586ZM9.68616 9.56586C9.68616 9.84201 9.91001 10.0659 10.1862 10.0659C10.4623 10.0659 10.6862 9.84201 10.6862 9.56586C10.6862 9.28972 10.4623 9.06586 10.1862 9.06586C9.91001 9.06586 9.68616 9.28972 9.68616 9.56586Z" fill="white"/>
<path d="M19.9568 7.53129C19.9568 8.912 18.8376 10.0313 17.4568 10.0313C16.0761 10.0313 14.9568 8.912 14.9568 7.53129C14.9568 6.15058 16.0761 5.03129 17.4568 5.03129C18.8376 5.03129 19.9568 6.15058 19.9568 7.53129ZM16.9568 7.53129C16.9568 7.80743 17.1807 8.03129 17.4568 8.03129C17.733 8.03129 17.9568 7.80743 17.9568 7.53129C17.9568 7.25515 17.733 7.03129 17.4568 7.03129C17.1807 7.03129 16.9568 7.25515 16.9568 7.53129Z" fill="white"/>
<path d="M28.0601 7.53129C28.0601 8.912 26.9408 10.0313 25.5601 10.0313C24.1793 10.0313 23.0601 8.912 23.0601 7.53129C23.0601 6.15058 24.1793 5.03129 25.5601 5.03129C26.9408 5.03129 28.0601 6.15058 28.0601 7.53129ZM25.0601 7.53129C25.0601 7.80743 25.2839 8.03129 25.5601 8.03129C25.8362 8.03129 26.0601 7.80743 26.0601 7.53129C26.0601 7.25515 25.8362 7.03129 25.5601 7.03129C25.2839 7.03129 25.0601 7.25515 25.0601 7.53129Z" fill="white"/>
<path d="M37.7478 8.72773C37.7478 10.1084 36.6285 11.2277 35.2478 11.2277C33.8671 11.2277 32.7478 10.1084 32.7478 8.72773C32.7478 7.34702 33.8671 6.22773 35.2478 6.22773C36.6285 6.22773 37.7478 7.34702 37.7478 8.72773ZM34.7478 8.72773C34.7478 9.00387 34.9717 9.22773 35.2478 9.22773C35.5239 9.22773 35.7478 9.00387 35.7478 8.72773C35.7478 8.45159 35.5239 8.22773 35.2478 8.22773C34.9717 8.22773 34.7478 8.45159 34.7478 8.72773Z" fill="white"/>
<path d="M47.6949 17.9746C47.6949 19.3553 46.5756 20.4746 45.1949 20.4746C43.8142 20.4746 42.6949 19.3553 42.6949 17.9746C42.6949 16.5939 43.8142 15.4746 45.1949 15.4746C46.5756 15.4746 47.6949 16.5939 47.6949 17.9746ZM44.6949 17.9746C44.6949 18.2507 44.9188 18.4746 45.1949 18.4746C45.4711 18.4746 45.6949 18.2507 45.6949 17.9746C45.6949 17.6984 45.4711 17.4746 45.1949 17.4746C44.9188 17.4746 44.6949 17.6984 44.6949 17.9746Z" fill="white"/>
<path d="M34.8609 42.8501C34.8609 44.2308 33.7416 45.3501 32.3609 45.3501C30.9802 45.3501 29.8609 44.2308 29.8609 42.8501C29.8609 41.4694 30.9802 40.3501 32.3609 40.3501C33.7416 40.3501 34.8609 41.4694 34.8609 42.8501ZM31.8609 42.8501C31.8609 43.1263 32.0848 43.3501 32.3609 43.3501C32.637 43.3501 32.8609 43.1263 32.8609 42.8501C32.8609 42.574 32.637 42.3501 32.3609 42.3501C32.0848 42.3501 31.8609 42.574 31.8609 42.8501Z" fill="white"/>
<path d="M34.8609 34.358C34.8609 35.7387 33.7416 36.858 32.3609 36.858C30.9802 36.858 29.8609 35.7387 29.8609 34.358C29.8609 32.9773 30.9802 31.858 32.3609 31.858C33.7416 31.858 34.8609 32.9773 34.8609 34.358ZM31.8609 34.358C31.8609 34.6342 32.0848 34.858 32.3609 34.858C32.637 34.858 32.8609 34.6342 32.8609 34.358C32.8609 34.0819 32.637 33.858 32.3609 33.858C32.0848 33.858 31.8609 34.0819 31.8609 34.358Z" fill="white"/>
<path d="M24.2854 34.358C24.2854 35.7387 23.1661 36.858 21.7854 36.858C20.4047 36.858 19.2854 35.7387 19.2854 34.358C19.2854 32.9773 20.4047 31.858 21.7854 31.858C23.1661 31.858 24.2854 32.9773 24.2854 34.358ZM21.2854 34.358C21.2854 34.6342 21.5093 34.858 21.7854 34.858C22.0615 34.858 22.2854 34.6342 22.2854 34.358C22.2854 34.0819 22.0615 33.858 21.7854 33.858C21.5093 33.858 21.2854 34.0819 21.2854 34.358Z" fill="white"/>
<path d="M14.3959 30.4843C14.3959 31.865 13.2766 32.9843 11.8959 32.9843C10.5152 32.9843 9.3959 31.865 9.3959 30.4843C9.3959 29.1036 10.5152 27.9843 11.8959 27.9843C13.2766 27.9843 14.3959 29.1036 14.3959 30.4843ZM11.3959 30.4843C11.3959 30.7604 11.6198 30.9843 11.8959 30.9843C12.172 30.9843 12.3959 30.7604 12.3959 30.4843C12.3959 30.2081 12.172 29.9843 11.8959 29.9843C11.6198 29.9843 11.3959 30.2081 11.3959 30.4843Z" fill="white"/>
<path d="M29.2854 28.0869C29.2854 29.4676 28.1661 30.5869 26.7854 30.5869C25.4047 30.5869 24.2854 29.4676 24.2854 28.0869C24.2854 26.7062 25.4047 25.5869 26.7854 25.5869C28.1661 25.5869 29.2854 26.7062 29.2854 28.0869ZM26.2854 28.0869C26.2854 28.363 26.5093 28.5869 26.7854 28.5869C27.0615 28.5869 27.2854 28.363 27.2854 28.0869C27.2854 27.8107 27.0615 27.5869 26.7854 27.5869C26.5093 27.5869 26.2854 27.8107 26.2854 28.0869Z" fill="white"/>
<path d="M15.3617 15.7357C15.3617 17.1164 14.2424 18.2357 12.8617 18.2357C11.481 18.2357 10.3617 17.1164 10.3617 15.7357C10.3617 14.355 11.481 13.2357 12.8617 13.2357C14.2424 13.2357 15.3617 14.355 15.3617 15.7357ZM12.3617 15.7357C12.3617 16.0118 12.5855 16.2357 12.8617 16.2357C13.1378 16.2357 13.3617 16.0118 13.3617 15.7357C13.3617 15.4596 13.1378 15.2357 12.8617 15.2357C12.5855 15.2357 12.3617 15.4596 12.3617 15.7357Z" fill="white"/>
<path d="M22.8301 23.3708C22.8301 24.7515 21.7109 25.8708 20.3301 25.8708C18.9494 25.8708 17.8301 24.7515 17.8301 23.3708C17.8301 21.9901 18.9494 20.8708 20.3301 20.8708C21.7109 20.8708 22.8301 21.9901 22.8301 23.3708ZM19.8301 23.3708C19.8301 23.647 20.054 23.8708 20.3301 23.8708C20.6063 23.8708 20.8301 23.647 20.8301 23.3708C20.8301 23.0947 20.6063 22.8708 20.3301 22.8708C20.054 22.8708 19.8301 23.0947 19.8301 23.3708Z" fill="white"/>
<path d="M29.2854 20.8708C29.2854 22.2515 28.1661 23.3708 26.7854 23.3708C25.4047 23.3708 24.2854 22.2515 24.2854 20.8708C24.2854 19.4901 25.4047 18.3708 26.7854 18.3708C28.1661 18.3708 29.2854 19.4901 29.2854 20.8708ZM26.2854 20.8708C26.2854 21.147 26.5093 21.3708 26.7854 21.3708C27.0615 21.3708 27.2854 21.147 27.2854 20.8708C27.2854 20.5947 27.0615 20.3708 26.7854 20.3708C26.5093 20.3708 26.2854 20.5947 26.2854 20.8708Z" fill="white"/>
<path d="M38.5601 24.5869C38.5601 25.9676 37.4408 27.0869 36.0601 27.0869C34.6793 27.0869 33.5601 25.9676 33.5601 24.5869C33.5601 23.2062 34.6793 22.0869 36.0601 22.0869C37.4408 22.0869 38.5601 23.2062 38.5601 24.5869ZM35.5601 24.5869C35.5601 24.863 35.7839 25.0869 36.0601 25.0869C36.3362 25.0869 36.5601 24.863 36.5601 24.5869C36.5601 24.3107 36.3362 24.0869 36.0601 24.0869C35.7839 24.0869 35.5601 24.3107 35.5601 24.5869Z" fill="white"/>
<path d="M42.344 41.344C42.344 42.7247 41.2247 43.844 39.844 43.844C38.4633 43.844 37.344 42.7247 37.344 41.344C37.344 39.9633 38.4633 38.844 39.844 38.844C41.2247 38.844 42.344 39.9633 42.344 41.344ZM39.344 41.344C39.344 41.6202 39.5679 41.844 39.844 41.844C40.1201 41.844 40.344 41.6202 40.344 41.344C40.344 41.0679 40.1201 40.844 39.844 40.844C39.5679 40.844 39.344 41.0679 39.344 41.344Z" fill="white"/>
<path d="M42.344 36.019C42.344 37.3997 41.2247 38.519 39.844 38.519C38.4633 38.519 37.344 37.3997 37.344 36.019C37.344 34.6383 38.4633 33.519 39.844 33.519C41.2247 33.519 42.344 34.6383 42.344 36.019ZM39.344 36.019C39.344 36.2952 39.5679 36.519 39.844 36.519C40.1201 36.519 40.344 36.2952 40.344 36.019C40.344 35.7429 40.1201 35.519 39.844 35.519C39.5679 35.519 39.344 35.7429 39.344 36.019Z" fill="white"/>
<path d="M47.6443 25.3846C47.6443 26.7653 46.5251 27.8846 45.1443 27.8846C43.7636 27.8846 42.6443 26.7653 42.6443 25.3846C42.6443 24.0039 43.7636 22.8846 45.1443 22.8846C46.5251 22.8846 47.6443 24.0039 47.6443 25.3846ZM44.6443 25.3846C44.6443 25.6608 44.8682 25.8846 45.1443 25.8846C45.4205 25.8846 45.6443 25.6608 45.6443 25.3846C45.6443 25.1085 45.4205 24.8846 45.1443 24.8846C44.8682 24.8846 44.6443 25.1085 44.6443 25.3846Z" fill="white"/>
<path d="M13.8593 16.8537L19.4044 22.3351" stroke="white" stroke-width="2"/>
<path d="M18.4773 8.58689L26.5601 16.9829V18.937" stroke="white" stroke-width="2"/>
<path d="M8.56006 11.0869L3.56006 16.0869V22.0869L5.56006 24.0869H12.5601L16.5601 28.0869H25.5601" stroke="white" stroke-width="2"/>
<path d="M26.8457 8.82987L33.56 15.4316V22.1668L34.5811 23.1337" stroke="white" stroke-width="2"/>
<path d="M39.8583 38.1265V39.1077M45.1061 27.5636V28.2071L39.953 33.3281L39.953 34.0559M47.3076 25.5199H50.5" stroke="white" stroke-width="2"/>
<mask id="path-28-outside-1_225_169" maskUnits="userSpaceOnUse" x="56.7011" y="28.0431" width="19" height="16" fill="black">
<rect fill="white" x="56.7011" y="28.0431" width="19" height="16"/>
<path d="M57.4021 28.8891V43.0431H58.4101V28.8891H57.4021ZM64.8348 43.0431H65.8428V29.7291H70.4628V28.8891H60.2148V29.7291H64.8348V43.0431ZM69.8605 36.8271V37.7091H74.8585V36.8271H69.8605Z"/>
</mask>
<path d="M57.4021 28.8891V43.0431H58.4101V28.8891H57.4021ZM64.8348 43.0431H65.8428V29.7291H70.4628V28.8891H60.2148V29.7291H64.8348V43.0431ZM69.8605 36.8271V37.7091H74.8585V36.8271H69.8605Z" fill="#272525"/>
<path d="M57.4021 28.8891V28.6891H57.2021V28.8891H57.4021ZM57.4021 43.0431H57.2021V43.2431H57.4021V43.0431ZM58.4101 43.0431V43.2431H58.6101V43.0431H58.4101ZM58.4101 28.8891H58.6101V28.6891H58.4101V28.8891ZM57.2021 28.8891V43.0431H57.6021V28.8891H57.2021ZM57.4021 43.2431H58.4101V42.8431H57.4021V43.2431ZM58.6101 43.0431V28.8891H58.2101V43.0431H58.6101ZM58.4101 28.6891H57.4021V29.0891H58.4101V28.6891ZM64.8348 43.0431H64.6348V43.2431H64.8348V43.0431ZM65.8428 43.0431V43.2431H66.0428V43.0431H65.8428ZM65.8428 29.7291V29.5291H65.6428V29.7291H65.8428ZM70.4628 29.7291V29.9291H70.6628V29.7291H70.4628ZM70.4628 28.8891H70.6628V28.6891H70.4628V28.8891ZM60.2148 28.8891V28.6891H60.0148V28.8891H60.2148ZM60.2148 29.7291H60.0148V29.9291H60.2148V29.7291ZM64.8348 29.7291H65.0348V29.5291H64.8348V29.7291ZM64.8348 43.2431H65.8428V42.8431H64.8348V43.2431ZM66.0428 43.0431V29.7291H65.6428V43.0431H66.0428ZM65.8428 29.9291H70.4628V29.5291H65.8428V29.9291ZM70.6628 29.7291V28.8891H70.2628V29.7291H70.6628ZM70.4628 28.6891H60.2148V29.0891H70.4628V28.6891ZM60.0148 28.8891V29.7291H60.4148V28.8891H60.0148ZM60.2148 29.9291H64.8348V29.5291H60.2148V29.9291ZM64.6348 29.7291V43.0431H65.0348V29.7291H64.6348ZM69.8605 36.8271V36.6271H69.6605V36.8271H69.8605ZM69.8605 37.7091H69.6605V37.9091H69.8605V37.7091ZM74.8585 37.7091V37.9091H75.0585V37.7091H74.8585ZM74.8585 36.8271H75.0585V36.6271H74.8585V36.8271ZM69.6605 36.8271V37.7091H70.0605V36.8271H69.6605ZM69.8605 37.9091H74.8585V37.5091H69.8605V37.9091ZM75.0585 37.7091V36.8271H74.6585V37.7091H75.0585ZM74.8585 36.6271H69.8605V37.0271H74.8585V36.6271Z" fill="#272525" mask="url(#path-28-outside-1_225_169)"/>
<mask id="path-30-outside-2_225_169" maskUnits="userSpaceOnUse" x="75.1529" y="27.8891" width="73" height="19" fill="black">
<rect fill="white" x="75.1529" y="27.8891" width="73" height="19"/>
<path d="M84.5109 38.0871L86.2959 43.0431H87.3249L82.2429 28.8891H81.2769L76.1529 43.0431H77.1819L78.9249 38.0871H84.5109ZM79.2399 37.2471L80.9619 32.4801C81.2769 31.5771 81.5079 30.8421 81.6969 30.0231H81.7599C81.9489 30.8211 82.1379 31.5351 82.4949 32.5221L84.2169 37.2471H79.2399Z"/>
<path d="M88.8151 32.9631V43.0431H89.8231V38.3181H90.2011C92.3431 38.3181 93.4561 39.1371 94.2961 41.0901C94.5901 41.7621 94.9891 42.6021 95.2621 43.0431H96.3121C95.8921 42.3081 95.5561 41.4471 95.3251 40.9011C94.4221 38.8431 93.2881 37.8141 91.3771 37.6461L96.2071 32.9631H94.8841L90.3061 37.5621H89.8231V32.9631H88.8151Z"/>
<path d="M104.019 36.7011C104.019 34.9161 103.452 32.7321 100.533 32.7321C99.6302 32.7321 98.4962 32.9841 97.5722 33.5931L97.8872 34.3281C98.6222 33.8031 99.5462 33.5721 100.428 33.5721C102.822 33.5511 103.011 35.5461 103.011 36.5331V36.8061C98.8952 36.7641 96.8582 38.1711 96.8582 40.5021C96.8582 41.8461 97.7822 43.2741 99.8192 43.2741C101.436 43.2741 102.549 42.3711 103.053 41.5941H103.095L103.242 43.0431H104.166C104.04 42.2661 104.019 41.4471 104.019 40.6491V36.7011ZM103.011 39.8091C103.011 39.9771 102.99 40.2081 102.906 40.4181C102.57 41.4051 101.604 42.4341 99.9242 42.4341C98.8742 42.4341 97.9082 41.7831 97.9082 40.3341C97.9082 37.9191 100.806 37.5831 103.011 37.6461V39.8091Z"/>
<path d="M107.569 32.9631V35.6721C107.569 37.2891 107.38 38.7591 106.918 40.1661C106.687 40.8591 106.33 41.5311 105.91 42.2031H105.091L105.175 46.1931H106.015L106.078 43.0431H113.491L113.554 46.1931H114.394L114.478 42.2031H113.491V32.9631H107.569ZM108.472 33.8031H112.483V42.2031H107.002C107.317 41.5941 107.632 40.9851 107.863 40.2291C108.283 38.9271 108.472 37.4151 108.472 35.7561V33.8031Z"/>
<path d="M123.828 37.8981C123.87 37.7091 123.87 37.5621 123.87 37.2891C123.87 35.8401 123.24 32.7321 119.943 32.7321C117.339 32.7321 115.407 34.8321 115.407 38.1921C115.407 41.1531 117.213 43.2531 120.111 43.2531C121.875 43.2531 122.904 42.8121 123.282 42.6021L123.03 41.8251C122.463 42.0981 121.707 42.3921 120.237 42.3921C118.137 42.3921 116.394 41.1111 116.394 37.8981H123.828ZM116.436 37.1001C116.625 35.5461 117.591 33.5721 119.817 33.5721C122.253 33.5721 122.841 35.6931 122.82 37.1001H116.436Z"/>
<path d="M124.968 43.0431H125.976L126.291 37.7721C126.354 36.5121 126.438 35.2311 126.459 34.0761H126.543C126.816 35.0001 127.32 36.4911 127.677 37.4151L129.84 43.0431H130.575L132.864 37.3311C133.473 35.8191 133.893 34.7271 134.082 34.0761H134.145C134.208 35.3571 134.292 36.5121 134.355 37.7301L134.649 43.0431H135.657L134.901 32.9631H133.704L131.751 37.8561C131.289 39.0321 130.575 40.9431 130.302 41.7411H130.281C130.05 41.0271 129.525 39.6621 129.21 38.8221L126.921 32.9631H125.766L124.968 43.0431Z"/>
<path d="M138.591 43.0431V32.9631H137.583V43.0431H138.591Z"/>
<path d="M147.786 33.0681C146.925 32.9421 145.896 32.8581 144.93 32.8581C143.649 32.8581 142.515 33.0681 141.738 33.5931C141.129 34.0341 140.667 34.7061 140.667 35.6301C140.667 37.1421 141.948 37.9821 143.376 38.1501V38.1921C142.935 38.2551 142.599 38.4441 142.305 38.6541C141.234 39.4731 141.108 40.7751 140.604 41.8881C140.415 42.3291 140.205 42.7071 139.995 43.0431H141.087C141.213 42.8331 141.381 42.5181 141.507 42.2031C141.969 41.1111 142.242 39.6621 143.145 39.0111C143.565 38.6961 144.153 38.5281 144.972 38.5281H146.778V43.0431H147.786V33.0681ZM146.778 37.7091C146.274 37.7091 145.812 37.7091 144.888 37.7091C143.691 37.7091 141.696 37.2261 141.696 35.6721C141.696 33.9711 143.586 33.6351 144.972 33.6351C145.728 33.6351 146.211 33.6771 146.778 33.7611V37.7091Z"/>
</mask>
<path d="M84.5109 38.0871L86.2959 43.0431H87.3249L82.2429 28.8891H81.2769L76.1529 43.0431H77.1819L78.9249 38.0871H84.5109ZM79.2399 37.2471L80.9619 32.4801C81.2769 31.5771 81.5079 30.8421 81.6969 30.0231H81.7599C81.9489 30.8211 82.1379 31.5351 82.4949 32.5221L84.2169 37.2471H79.2399Z" fill="#272525"/>
<path d="M88.8151 32.9631V43.0431H89.8231V38.3181H90.2011C92.3431 38.3181 93.4561 39.1371 94.2961 41.0901C94.5901 41.7621 94.9891 42.6021 95.2621 43.0431H96.3121C95.8921 42.3081 95.5561 41.4471 95.3251 40.9011C94.4221 38.8431 93.2881 37.8141 91.3771 37.6461L96.2071 32.9631H94.8841L90.3061 37.5621H89.8231V32.9631H88.8151Z" fill="#272525"/>
<path d="M104.019 36.7011C104.019 34.9161 103.452 32.7321 100.533 32.7321C99.6302 32.7321 98.4962 32.9841 97.5722 33.5931L97.8872 34.3281C98.6222 33.8031 99.5462 33.5721 100.428 33.5721C102.822 33.5511 103.011 35.5461 103.011 36.5331V36.8061C98.8952 36.7641 96.8582 38.1711 96.8582 40.5021C96.8582 41.8461 97.7822 43.2741 99.8192 43.2741C101.436 43.2741 102.549 42.3711 103.053 41.5941H103.095L103.242 43.0431H104.166C104.04 42.2661 104.019 41.4471 104.019 40.6491V36.7011ZM103.011 39.8091C103.011 39.9771 102.99 40.2081 102.906 40.4181C102.57 41.4051 101.604 42.4341 99.9242 42.4341C98.8742 42.4341 97.9082 41.7831 97.9082 40.3341C97.9082 37.9191 100.806 37.5831 103.011 37.6461V39.8091Z" fill="#272525"/>
<path d="M107.569 32.9631V35.6721C107.569 37.2891 107.38 38.7591 106.918 40.1661C106.687 40.8591 106.33 41.5311 105.91 42.2031H105.091L105.175 46.1931H106.015L106.078 43.0431H113.491L113.554 46.1931H114.394L114.478 42.2031H113.491V32.9631H107.569ZM108.472 33.8031H112.483V42.2031H107.002C107.317 41.5941 107.632 40.9851 107.863 40.2291C108.283 38.9271 108.472 37.4151 108.472 35.7561V33.8031Z" fill="#272525"/>
<path d="M123.828 37.8981C123.87 37.7091 123.87 37.5621 123.87 37.2891C123.87 35.8401 123.24 32.7321 119.943 32.7321C117.339 32.7321 115.407 34.8321 115.407 38.1921C115.407 41.1531 117.213 43.2531 120.111 43.2531C121.875 43.2531 122.904 42.8121 123.282 42.6021L123.03 41.8251C122.463 42.0981 121.707 42.3921 120.237 42.3921C118.137 42.3921 116.394 41.1111 116.394 37.8981H123.828ZM116.436 37.1001C116.625 35.5461 117.591 33.5721 119.817 33.5721C122.253 33.5721 122.841 35.6931 122.82 37.1001H116.436Z" fill="#272525"/>
<path d="M124.968 43.0431H125.976L126.291 37.7721C126.354 36.5121 126.438 35.2311 126.459 34.0761H126.543C126.816 35.0001 127.32 36.4911 127.677 37.4151L129.84 43.0431H130.575L132.864 37.3311C133.473 35.8191 133.893 34.7271 134.082 34.0761H134.145C134.208 35.3571 134.292 36.5121 134.355 37.7301L134.649 43.0431H135.657L134.901 32.9631H133.704L131.751 37.8561C131.289 39.0321 130.575 40.9431 130.302 41.7411H130.281C130.05 41.0271 129.525 39.6621 129.21 38.8221L126.921 32.9631H125.766L124.968 43.0431Z" fill="#272525"/>
<path d="M138.591 43.0431V32.9631H137.583V43.0431H138.591Z" fill="#272525"/>
<path d="M147.786 33.0681C146.925 32.9421 145.896 32.8581 144.93 32.8581C143.649 32.8581 142.515 33.0681 141.738 33.5931C141.129 34.0341 140.667 34.7061 140.667 35.6301C140.667 37.1421 141.948 37.9821 143.376 38.1501V38.1921C142.935 38.2551 142.599 38.4441 142.305 38.6541C141.234 39.4731 141.108 40.7751 140.604 41.8881C140.415 42.3291 140.205 42.7071 139.995 43.0431H141.087C141.213 42.8331 141.381 42.5181 141.507 42.2031C141.969 41.1111 142.242 39.6621 143.145 39.0111C143.565 38.6961 144.153 38.5281 144.972 38.5281H146.778V43.0431H147.786V33.0681ZM146.778 37.7091C146.274 37.7091 145.812 37.7091 144.888 37.7091C143.691 37.7091 141.696 37.2261 141.696 35.6721C141.696 33.9711 143.586 33.6351 144.972 33.6351C145.728 33.6351 146.211 33.6771 146.778 33.7611V37.7091Z" fill="#272525"/>
<path d="M84.5109 38.0871L86.2959 43.0431H87.3249L82.2429 28.8891H81.2769L76.1529 43.0431H77.1819L78.9249 38.0871H84.5109ZM79.2399 37.2471L80.9619 32.4801C81.2769 31.5771 81.5079 30.8421 81.6969 30.0231H81.7599C81.9489 30.8211 82.1379 31.5351 82.4949 32.5221L84.2169 37.2471H79.2399Z" stroke="#272525" stroke-width="0.4" mask="url(#path-30-outside-2_225_169)"/>
<path d="M88.8151 32.9631V43.0431H89.8231V38.3181H90.2011C92.3431 38.3181 93.4561 39.1371 94.2961 41.0901C94.5901 41.7621 94.9891 42.6021 95.2621 43.0431H96.3121C95.8921 42.3081 95.5561 41.4471 95.3251 40.9011C94.4221 38.8431 93.2881 37.8141 91.3771 37.6461L96.2071 32.9631H94.8841L90.3061 37.5621H89.8231V32.9631H88.8151Z" stroke="#272525" stroke-width="0.4" mask="url(#path-30-outside-2_225_169)"/>
<path d="M104.019 36.7011C104.019 34.9161 103.452 32.7321 100.533 32.7321C99.6302 32.7321 98.4962 32.9841 97.5722 33.5931L97.8872 34.3281C98.6222 33.8031 99.5462 33.5721 100.428 33.5721C102.822 33.5511 103.011 35.5461 103.011 36.5331V36.8061C98.8952 36.7641 96.8582 38.1711 96.8582 40.5021C96.8582 41.8461 97.7822 43.2741 99.8192 43.2741C101.436 43.2741 102.549 42.3711 103.053 41.5941H103.095L103.242 43.0431H104.166C104.04 42.2661 104.019 41.4471 104.019 40.6491V36.7011ZM103.011 39.8091C103.011 39.9771 102.99 40.2081 102.906 40.4181C102.57 41.4051 101.604 42.4341 99.9242 42.4341C98.8742 42.4341 97.9082 41.7831 97.9082 40.3341C97.9082 37.9191 100.806 37.5831 103.011 37.6461V39.8091Z" stroke="#272525" stroke-width="0.4" mask="url(#path-30-outside-2_225_169)"/>
<path d="M107.569 32.9631V35.6721C107.569 37.2891 107.38 38.7591 106.918 40.1661C106.687 40.8591 106.33 41.5311 105.91 42.2031H105.091L105.175 46.1931H106.015L106.078 43.0431H113.491L113.554 46.1931H114.394L114.478 42.2031H113.491V32.9631H107.569ZM108.472 33.8031H112.483V42.2031H107.002C107.317 41.5941 107.632 40.9851 107.863 40.2291C108.283 38.9271 108.472 37.4151 108.472 35.7561V33.8031Z" stroke="#272525" stroke-width="0.4" mask="url(#path-30-outside-2_225_169)"/>
<path d="M123.828 37.8981C123.87 37.7091 123.87 37.5621 123.87 37.2891C123.87 35.8401 123.24 32.7321 119.943 32.7321C117.339 32.7321 115.407 34.8321 115.407 38.1921C115.407 41.1531 117.213 43.2531 120.111 43.2531C121.875 43.2531 122.904 42.8121 123.282 42.6021L123.03 41.8251C122.463 42.0981 121.707 42.3921 120.237 42.3921C118.137 42.3921 116.394 41.1111 116.394 37.8981H123.828ZM116.436 37.1001C116.625 35.5461 117.591 33.5721 119.817 33.5721C122.253 33.5721 122.841 35.6931 122.82 37.1001H116.436Z" stroke="#272525" stroke-width="0.4" mask="url(#path-30-outside-2_225_169)"/>
<path d="M124.968 43.0431H125.976L126.291 37.7721C126.354 36.5121 126.438 35.2311 126.459 34.0761H126.543C126.816 35.0001 127.32 36.4911 127.677 37.4151L129.84 43.0431H130.575L132.864 37.3311C133.473 35.8191 133.893 34.7271 134.082 34.0761H134.145C134.208 35.3571 134.292 36.5121 134.355 37.7301L134.649 43.0431H135.657L134.901 32.9631H133.704L131.751 37.8561C131.289 39.0321 130.575 40.9431 130.302 41.7411H130.281C130.05 41.0271 129.525 39.6621 129.21 38.8221L126.921 32.9631H125.766L124.968 43.0431Z" stroke="#272525" stroke-width="0.4" mask="url(#path-30-outside-2_225_169)"/>
<path d="M138.591 43.0431V32.9631H137.583V43.0431H138.591Z" stroke="#272525" stroke-width="0.4" mask="url(#path-30-outside-2_225_169)"/>
<path d="M147.786 33.0681C146.925 32.9421 145.896 32.8581 144.93 32.8581C143.649 32.8581 142.515 33.0681 141.738 33.5931C141.129 34.0341 140.667 34.7061 140.667 35.6301C140.667 37.1421 141.948 37.9821 143.376 38.1501V38.1921C142.935 38.2551 142.599 38.4441 142.305 38.6541C141.234 39.4731 141.108 40.7751 140.604 41.8881C140.415 42.3291 140.205 42.7071 139.995 43.0431H141.087C141.213 42.8331 141.381 42.5181 141.507 42.2031C141.969 41.1111 142.242 39.6621 143.145 39.0111C143.565 38.6961 144.153 38.5281 144.972 38.5281H146.778V43.0431H147.786V33.0681ZM146.778 37.7091C146.274 37.7091 145.812 37.7091 144.888 37.7091C143.691 37.7091 141.696 37.2261 141.696 35.6721C141.696 33.9711 143.586 33.6351 144.972 33.6351C145.728 33.6351 146.211 33.6771 146.778 33.7611V37.7091Z" stroke="#272525" stroke-width="0.4" mask="url(#path-30-outside-2_225_169)"/>
<path d="M139.087 30.7831C139.087 31.3354 138.639 31.7831 138.087 31.7831C137.535 31.7831 137.087 31.3354 137.087 30.7831C137.087 30.2308 137.535 29.7831 138.087 29.7831C138.639 29.7831 139.087 30.2308 139.087 30.7831ZM137.837 30.7831C137.837 30.9211 137.949 31.0331 138.087 31.0331C138.225 31.0331 138.337 30.9211 138.337 30.7831C138.337 30.645 138.225 30.5331 138.087 30.5331C137.949 30.5331 137.837 30.645 137.837 30.7831Z" fill="#292726"/>
<mask id="path-32-outside-3_225_169" maskUnits="userSpaceOnUse" x="56.7057" y="6.40298" width="92" height="19" fill="black">
<rect fill="white" x="56.7057" y="6.40298" width="92" height="19"/>
<path d="M57.7057 21.641C58.2727 21.683 59.0917 21.767 60.1627 21.767C62.1787 21.767 63.7117 21.368 64.6567 20.423C65.2867 19.751 65.7067 18.869 65.7067 17.714C65.7067 15.404 63.9007 14.375 62.7037 14.102V14.039C64.1107 13.556 65.1397 12.338 65.1397 10.889C65.1397 9.90198 64.8457 9.14598 64.2577 8.57898C63.4807 7.78098 62.3257 7.40298 60.5617 7.40298C59.5117 7.40298 58.5037 7.52898 57.7057 7.71798V21.641ZM58.7137 8.38998C59.0287 8.30598 59.5747 8.24298 60.4987 8.24298C62.5987 8.24298 64.1107 8.95698 64.1107 10.952C64.1107 12.506 62.8297 13.724 60.7717 13.724H58.7137V8.38998ZM58.7137 14.543H60.4987C62.7457 14.543 64.6567 15.509 64.6567 17.735C64.6567 20.15 62.6197 20.927 60.4567 20.927C59.7007 20.927 59.1337 20.906 58.7137 20.822V14.543Z"/>
<path d="M69.9042 21.662V11.582H68.8962V21.662H69.9042Z"/>
<path d="M73.7889 11.582V21.662H74.7969V16.748H80.5929V21.662H81.6009V11.582H80.5929V15.908H74.7969V11.582H73.7889Z"/>
<path d="M85.4101 11.582V21.662H86.4181V16.748H92.2141V21.662H93.2221V11.582H92.2141V15.908H86.4181V11.582H85.4101Z"/>
<path d="M97.0313 11.582V21.662H98.1023C99.4043 19.751 100.727 17.714 101.882 16.055C102.596 14.963 103.142 14.081 103.961 12.653H104.003C103.919 13.955 103.898 14.942 103.898 16.622V21.662H104.885V11.582H103.793L99.9083 17.357C99.0683 18.638 98.6903 19.31 97.9763 20.57L97.9343 20.549C98.0183 19.058 98.0183 18.134 98.0183 16.559V11.582H97.0313Z"/>
<path d="M108.714 11.582V21.662H116.316L116.379 24.812H117.219L117.303 20.822H116.316V11.582H115.308V20.822H109.722V11.582H108.714Z"/>
<path d="M120.356 11.582V21.641C120.944 21.683 121.742 21.767 122.645 21.767C124.115 21.767 125.816 21.515 126.803 20.57C127.328 20.045 127.643 19.394 127.643 18.491C127.643 15.803 125.291 15.131 123.086 15.131C122.54 15.131 121.805 15.152 121.364 15.236V11.582H120.356ZM121.343 16.076C121.868 15.992 122.351 15.95 122.855 15.95C124.472 15.95 126.635 16.412 126.635 18.47C126.635 20.444 124.493 20.969 122.918 20.969C122.246 20.969 121.763 20.927 121.343 20.885V16.076Z"/>
<path d="M130.748 11.582V21.662H131.756V16.937H132.134C134.276 16.937 135.389 17.756 136.229 19.709C136.523 20.381 136.922 21.221 137.195 21.662H138.245C137.825 20.927 137.489 20.066 137.258 19.52C136.355 17.462 135.221 16.433 133.31 16.265L138.14 11.582H136.817L132.239 16.181H131.756V11.582H130.748Z"/>
<path d="M147.234 15.32C147.234 13.535 146.667 11.351 143.748 11.351C142.845 11.351 141.711 11.603 140.787 12.212L141.102 12.947C141.837 12.422 142.761 12.191 143.643 12.191C146.037 12.17 146.226 14.165 146.226 15.152V15.425C142.11 15.383 140.073 16.79 140.073 19.121C140.073 20.465 140.997 21.893 143.034 21.893C144.651 21.893 145.764 20.99 146.268 20.213H146.31L146.457 21.662H147.381C147.255 20.885 147.234 20.066 147.234 19.268V15.32ZM146.226 18.428C146.226 18.596 146.205 18.827 146.121 19.037C145.785 20.024 144.819 21.053 143.139 21.053C142.089 21.053 141.123 20.402 141.123 18.953C141.123 16.538 144.021 16.202 146.226 16.265V18.428Z"/>
</mask>
<path d="M57.7057 21.641C58.2727 21.683 59.0917 21.767 60.1627 21.767C62.1787 21.767 63.7117 21.368 64.6567 20.423C65.2867 19.751 65.7067 18.869 65.7067 17.714C65.7067 15.404 63.9007 14.375 62.7037 14.102V14.039C64.1107 13.556 65.1397 12.338 65.1397 10.889C65.1397 9.90198 64.8457 9.14598 64.2577 8.57898C63.4807 7.78098 62.3257 7.40298 60.5617 7.40298C59.5117 7.40298 58.5037 7.52898 57.7057 7.71798V21.641ZM58.7137 8.38998C59.0287 8.30598 59.5747 8.24298 60.4987 8.24298C62.5987 8.24298 64.1107 8.95698 64.1107 10.952C64.1107 12.506 62.8297 13.724 60.7717 13.724H58.7137V8.38998ZM58.7137 14.543H60.4987C62.7457 14.543 64.6567 15.509 64.6567 17.735C64.6567 20.15 62.6197 20.927 60.4567 20.927C59.7007 20.927 59.1337 20.906 58.7137 20.822V14.543Z" fill="#272525"/>
<path d="M69.9042 21.662V11.582H68.8962V21.662H69.9042Z" fill="#272525"/>
<path d="M73.7889 11.582V21.662H74.7969V16.748H80.5929V21.662H81.6009V11.582H80.5929V15.908H74.7969V11.582H73.7889Z" fill="#272525"/>
<path d="M85.4101 11.582V21.662H86.4181V16.748H92.2141V21.662H93.2221V11.582H92.2141V15.908H86.4181V11.582H85.4101Z" fill="#272525"/>
<path d="M97.0313 11.582V21.662H98.1023C99.4043 19.751 100.727 17.714 101.882 16.055C102.596 14.963 103.142 14.081 103.961 12.653H104.003C103.919 13.955 103.898 14.942 103.898 16.622V21.662H104.885V11.582H103.793L99.9083 17.357C99.0683 18.638 98.6903 19.31 97.9763 20.57L97.9343 20.549C98.0183 19.058 98.0183 18.134 98.0183 16.559V11.582H97.0313Z" fill="#272525"/>
<path d="M108.714 11.582V21.662H116.316L116.379 24.812H117.219L117.303 20.822H116.316V11.582H115.308V20.822H109.722V11.582H108.714Z" fill="#272525"/>
<path d="M120.356 11.582V21.641C120.944 21.683 121.742 21.767 122.645 21.767C124.115 21.767 125.816 21.515 126.803 20.57C127.328 20.045 127.643 19.394 127.643 18.491C127.643 15.803 125.291 15.131 123.086 15.131C122.54 15.131 121.805 15.152 121.364 15.236V11.582H120.356ZM121.343 16.076C121.868 15.992 122.351 15.95 122.855 15.95C124.472 15.95 126.635 16.412 126.635 18.47C126.635 20.444 124.493 20.969 122.918 20.969C122.246 20.969 121.763 20.927 121.343 20.885V16.076Z" fill="#272525"/>
<path d="M130.748 11.582V21.662H131.756V16.937H132.134C134.276 16.937 135.389 17.756 136.229 19.709C136.523 20.381 136.922 21.221 137.195 21.662H138.245C137.825 20.927 137.489 20.066 137.258 19.52C136.355 17.462 135.221 16.433 133.31 16.265L138.14 11.582H136.817L132.239 16.181H131.756V11.582H130.748Z" fill="#272525"/>
<path d="M147.234 15.32C147.234 13.535 146.667 11.351 143.748 11.351C142.845 11.351 141.711 11.603 140.787 12.212L141.102 12.947C141.837 12.422 142.761 12.191 143.643 12.191C146.037 12.17 146.226 14.165 146.226 15.152V15.425C142.11 15.383 140.073 16.79 140.073 19.121C140.073 20.465 140.997 21.893 143.034 21.893C144.651 21.893 145.764 20.99 146.268 20.213H146.31L146.457 21.662H147.381C147.255 20.885 147.234 20.066 147.234 19.268V15.32ZM146.226 18.428C146.226 18.596 146.205 18.827 146.121 19.037C145.785 20.024 144.819 21.053 143.139 21.053C142.089 21.053 141.123 20.402 141.123 18.953C141.123 16.538 144.021 16.202 146.226 16.265V18.428Z" fill="#272525"/>
<path d="M57.7057 21.641C58.2727 21.683 59.0917 21.767 60.1627 21.767C62.1787 21.767 63.7117 21.368 64.6567 20.423C65.2867 19.751 65.7067 18.869 65.7067 17.714C65.7067 15.404 63.9007 14.375 62.7037 14.102V14.039C64.1107 13.556 65.1397 12.338 65.1397 10.889C65.1397 9.90198 64.8457 9.14598 64.2577 8.57898C63.4807 7.78098 62.3257 7.40298 60.5617 7.40298C59.5117 7.40298 58.5037 7.52898 57.7057 7.71798V21.641ZM58.7137 8.38998C59.0287 8.30598 59.5747 8.24298 60.4987 8.24298C62.5987 8.24298 64.1107 8.95698 64.1107 10.952C64.1107 12.506 62.8297 13.724 60.7717 13.724H58.7137V8.38998ZM58.7137 14.543H60.4987C62.7457 14.543 64.6567 15.509 64.6567 17.735C64.6567 20.15 62.6197 20.927 60.4567 20.927C59.7007 20.927 59.1337 20.906 58.7137 20.822V14.543Z" stroke="#272525" mask="url(#path-32-outside-3_225_169)"/>
<path d="M69.9042 21.662V11.582H68.8962V21.662H69.9042Z" stroke="#272525" mask="url(#path-32-outside-3_225_169)"/>
<path d="M73.7889 11.582V21.662H74.7969V16.748H80.5929V21.662H81.6009V11.582H80.5929V15.908H74.7969V11.582H73.7889Z" stroke="#272525" mask="url(#path-32-outside-3_225_169)"/>
<path d="M85.4101 11.582V21.662H86.4181V16.748H92.2141V21.662H93.2221V11.582H92.2141V15.908H86.4181V11.582H85.4101Z" stroke="#272525" mask="url(#path-32-outside-3_225_169)"/>
<path d="M97.0313 11.582V21.662H98.1023C99.4043 19.751 100.727 17.714 101.882 16.055C102.596 14.963 103.142 14.081 103.961 12.653H104.003C103.919 13.955 103.898 14.942 103.898 16.622V21.662H104.885V11.582H103.793L99.9083 17.357C99.0683 18.638 98.6903 19.31 97.9763 20.57L97.9343 20.549C98.0183 19.058 98.0183 18.134 98.0183 16.559V11.582H97.0313Z" stroke="#272525" mask="url(#path-32-outside-3_225_169)"/>
<path d="M108.714 11.582V21.662H116.316L116.379 24.812H117.219L117.303 20.822H116.316V11.582H115.308V20.822H109.722V11.582H108.714Z" stroke="#272525" mask="url(#path-32-outside-3_225_169)"/>
<path d="M120.356 11.582V21.641C120.944 21.683 121.742 21.767 122.645 21.767C124.115 21.767 125.816 21.515 126.803 20.57C127.328 20.045 127.643 19.394 127.643 18.491C127.643 15.803 125.291 15.131 123.086 15.131C122.54 15.131 121.805 15.152 121.364 15.236V11.582H120.356ZM121.343 16.076C121.868 15.992 122.351 15.95 122.855 15.95C124.472 15.95 126.635 16.412 126.635 18.47C126.635 20.444 124.493 20.969 122.918 20.969C122.246 20.969 121.763 20.927 121.343 20.885V16.076Z" stroke="#272525" mask="url(#path-32-outside-3_225_169)"/>
<path d="M130.748 11.582V21.662H131.756V16.937H132.134C134.276 16.937 135.389 17.756 136.229 19.709C136.523 20.381 136.922 21.221 137.195 21.662H138.245C137.825 20.927 137.489 20.066 137.258 19.52C136.355 17.462 135.221 16.433 133.31 16.265L138.14 11.582H136.817L132.239 16.181H131.756V11.582H130.748Z" stroke="#272525" mask="url(#path-32-outside-3_225_169)"/>
<path d="M147.234 15.32C147.234 13.535 146.667 11.351 143.748 11.351C142.845 11.351 141.711 11.603 140.787 12.212L141.102 12.947C141.837 12.422 142.761 12.191 143.643 12.191C146.037 12.17 146.226 14.165 146.226 15.152V15.425C142.11 15.383 140.073 16.79 140.073 19.121C140.073 20.465 140.997 21.893 143.034 21.893C144.651 21.893 145.764 20.99 146.268 20.213H146.31L146.457 21.662H147.381C147.255 20.885 147.234 20.066 147.234 19.268V15.32ZM146.226 18.428C146.226 18.596 146.205 18.827 146.121 19.037C145.785 20.024 144.819 21.053 143.139 21.053C142.089 21.053 141.123 20.402 141.123 18.953C141.123 16.538 144.021 16.202 146.226 16.265V18.428Z" stroke="#272525" mask="url(#path-32-outside-3_225_169)"/>
<path d="M70.9985 8.49896C70.9985 9.38261 70.2821 10.099 69.3985 10.099C68.5148 10.099 67.7985 9.38261 67.7985 8.49896C67.7985 7.6153 68.5148 6.89896 69.3985 6.89896C70.2821 6.89896 70.9985 7.6153 70.9985 8.49896ZM68.9985 8.49896C68.9985 8.71987 69.1775 8.89896 69.3985 8.89896C69.6194 8.89896 69.7985 8.71987 69.7985 8.49896C69.7985 8.27805 69.6194 8.09896 69.3985 8.09896C69.1775 8.09896 68.9985 8.27805 68.9985 8.49896Z" fill="#292726"/>
<defs>
<linearGradient id="paint0_linear_225_169" x1="0.5" y1="25.1907" x2="50.5" y2="25.1907" gradientUnits="userSpaceOnUse">
<stop stop-color="#00C69F"/>
<stop offset="1" stop-color="#009CCA"/>
</linearGradient>
</defs>
</svg>
